<svg xmlns="http://www.w3.org/2000/svg" xmlns:xlink="http://www.w3.org/1999/xlink" width="500" zoomAndPan="magnify" viewBox="0 0 375 374.999991" height="500" preserveAspectRatio="xMidYMid meet" version="1.0"><defs><g/></defs><rect x="-37.5" width="450" fill="#ffffff" y="-37.499999" height="449.999989" fill-opacity="1"/><rect x="-37.5" width="450" fill="#000000" y="-37.499999" height="449.999989" fill-opacity="1"/><path stroke-linecap="butt" transform="matrix(0.75, 0, 0, 0.75, 6.737015, 150.690782)" fill="none" stroke-linejoin="miter" d="M 40.121485 107.078971 L 40.121485 92.162302 L 25.199608 92.162302 L 25.199608 77.240426 L 10.28294 77.240426 L 10.28294 32.480003 L 25.199608 32.480003 L 25.199608 17.558126 L 40.121485 17.558126 L 40.121485 2.641458 L 84.881908 2.641458 L 84.881908 17.558126 L 99.803785 17.558126 L 99.803785 32.480003 L 114.720453 32.480003 L 114.720453 77.240426 L 99.803785 77.240426 L 99.803785 92.162302 L 84.881908 92.162302 L 84.881908 107.078971 Z M 55.043362 92.162302 L 84.881908 92.162302 L 84.881908 32.480003 L 69.960031 32.480003 L 69.960031 17.558126 L 40.121485 17.558126 L 40.121485 77.240426 L 55.043362 77.240426 Z M 159.480876 107.078971 L 159.480876 62.318549 L 174.402753 62.318549 L 174.402753 47.40188 L 189.319421 47.40188 L 189.319421 32.480003 L 204.241298 32.480003 L 204.241298 17.558126 L 159.480876 17.558126 L 159.480876 32.480003 L 129.64233 32.480003 L 129.64233 2.641458 L 234.079844 2.641458 L 234.079844 32.480003 L 219.163175 32.480003 L 219.163175 47.40188 L 204.241298 47.40188 L 204.241298 62.318549 L 189.319421 62.318549 L 189.319421 107.078971 Z M 263.918389 107.078971 L 263.918389 92.162302 L 293.762143 92.162302 L 293.762143 32.480003 L 278.840266 32.480003 L 278.840266 17.558126 L 293.762143 17.558126 L 293.762143 2.641458 L 323.600689 2.641458 L 323.600689 92.162302 L 353.439234 92.162302 L 353.439234 107.078971 Z M 428.038202 107.078971 L 428.038202 77.240426 L 368.361111 77.240426 L 368.361111 47.40188 L 383.27778 47.40188 L 383.27778 32.480003 L 398.199657 32.480003 L 398.199657 17.558126 L 413.121534 17.558126 L 413.121534 2.641458 L 457.881956 2.641458 L 457.881956 62.318549 L 472.798625 62.318549 L 472.798625 77.240426 L 457.881956 77.240426 L 457.881956 107.078971 Z M 398.199657 62.318549 L 428.038202 62.318549 L 428.038202 32.480003 L 413.121534 32.480003 L 413.121534 47.40188 L 398.199657 47.40188 Z M 398.199657 62.318549 " stroke="#ffffff" stroke-width="8.9523" stroke-opacity="1" stroke-miterlimit="4"/><g fill="#ffffff" fill-opacity="1"><g transform="translate(14.447952, 242.19077)"><g><path d="M 22.375 -11.1875 L 22.375 -22.375 L 11.1875 -22.375 L 11.1875 -33.5625 L 0 -33.5625 L 0 -67.140625 L 11.1875 -67.140625 L 11.1875 -78.328125 L 22.375 -78.328125 L 22.375 -89.515625 L 55.953125 -89.515625 L 55.953125 -78.328125 L 67.140625 -78.328125 L 67.140625 -67.140625 L 78.328125 -67.140625 L 78.328125 -33.5625 L 67.140625 -33.5625 L 67.140625 -22.375 L 55.953125 -22.375 L 55.953125 -11.1875 Z M 33.5625 -22.375 L 55.953125 -22.375 L 55.953125 -67.140625 L 44.765625 -67.140625 L 44.765625 -78.328125 L 22.375 -78.328125 L 22.375 -33.5625 L 33.5625 -33.5625 Z M 33.5625 -22.375 "/></g></g></g><g fill="#ffffff" fill-opacity="1"><g transform="translate(103.967563, 242.19077)"><g><path d="M 22.375 -11.1875 L 22.375 -44.765625 L 33.5625 -44.765625 L 33.5625 -55.953125 L 44.765625 -55.953125 L 44.765625 -67.140625 L 55.953125 -67.140625 L 55.953125 -78.328125 L 22.375 -78.328125 L 22.375 -67.140625 L 0 -67.140625 L 0 -89.515625 L 78.328125 -89.515625 L 78.328125 -67.140625 L 67.140625 -67.140625 L 67.140625 -55.953125 L 55.953125 -55.953125 L 55.953125 -44.765625 L 44.765625 -44.765625 L 44.765625 -11.1875 Z M 22.375 -11.1875 "/></g></g></g><g fill="#ffffff" fill-opacity="1"><g transform="translate(193.487174, 242.19077)"><g><path d="M 11.1875 -11.1875 L 11.1875 -22.375 L 33.5625 -22.375 L 33.5625 -67.140625 L 22.375 -67.140625 L 22.375 -78.328125 L 33.5625 -78.328125 L 33.5625 -89.515625 L 55.953125 -89.515625 L 55.953125 -22.375 L 78.328125 -22.375 L 78.328125 -11.1875 Z M 11.1875 -11.1875 "/></g></g></g><g fill="#ffffff" fill-opacity="1"><g transform="translate(283.006785, 242.19077)"><g><path d="M 44.765625 -11.1875 L 44.765625 -33.5625 L 0 -33.5625 L 0 -55.953125 L 11.1875 -55.953125 L 11.1875 -67.140625 L 22.375 -67.140625 L 22.375 -78.328125 L 33.5625 -78.328125 L 33.5625 -89.515625 L 67.140625 -89.515625 L 67.140625 -44.765625 L 78.328125 -44.765625 L 78.328125 -33.5625 L 67.140625 -33.5625 L 67.140625 -11.1875 Z M 22.375 -44.765625 L 44.765625 -44.765625 L 44.765625 -67.140625 L 33.5625 -67.140625 L 33.5625 -55.953125 L 22.375 -55.953125 Z M 22.375 -44.765625 "/></g></g></g><path stroke-linecap="butt" transform="matrix(0.75, 0, 0, 0.75, -13.503229, 141.339132)" fill="none" stroke-linejoin="miter" d="M 67.103272 107.079087 L 67.103272 92.162419 L 52.186604 92.162419 L 52.186604 77.240542 L 37.264727 77.240542 L 37.264727 32.480119 L 52.186604 32.480119 L 52.186604 17.558243 L 67.103272 17.558243 L 67.103272 2.641574 L 111.863695 2.641574 L 111.863695 17.558243 L 126.785572 17.558243 L 126.785572 32.480119 L 141.707449 32.480119 L 141.707449 77.240542 L 126.785572 77.240542 L 126.785572 92.162419 L 111.863695 92.162419 L 111.863695 107.079087 Z M 82.025149 92.162419 L 111.863695 92.162419 L 111.863695 32.480119 L 96.947026 32.480119 L 96.947026 17.558243 L 67.103272 17.558243 L 67.103272 77.240542 L 82.025149 77.240542 Z M 186.462663 107.079087 L 186.462663 62.318665 L 201.38454 62.318665 L 201.38454 47.401996 L 216.306417 47.401996 L 216.306417 32.480119 L 231.223085 32.480119 L 231.223085 17.558243 L 186.462663 17.558243 L 186.462663 32.480119 L 156.624117 32.480119 L 156.624117 2.641574 L 261.066839 2.641574 L 261.066839 32.480119 L 246.144962 32.480119 L 246.144962 47.401996 L 231.223085 47.401996 L 231.223085 62.318665 L 216.306417 62.318665 L 216.306417 107.079087 Z M 290.905385 107.079087 L 290.905385 92.162419 L 320.74393 92.162419 L 320.74393 32.480119 L 305.822053 32.480119 L 305.822053 17.558243 L 320.74393 17.558243 L 320.74393 2.641574 L 350.582476 2.641574 L 350.582476 92.162419 L 380.42623 92.162419 L 380.42623 107.079087 Z M 455.025198 107.079087 L 455.025198 77.240542 L 395.342898 77.240542 L 395.342898 47.401996 L 410.264775 47.401996 L 410.264775 32.480119 L 425.186652 32.480119 L 425.186652 17.558243 L 440.103321 17.558243 L 440.103321 2.641574 L 484.863743 2.641574 L 484.863743 62.318665 L 499.78562 62.318665 L 499.78562 77.240542 L 484.863743 77.240542 L 484.863743 107.079087 Z M 425.186652 62.318665 L 455.025198 62.318665 L 455.025198 32.480119 L 440.103321 32.480119 L 440.103321 47.401996 L 425.186652 47.401996 Z M 425.186652 62.318665 " stroke="#ffffff" stroke-width="8.9523" stroke-opacity="1" stroke-miterlimit="4"/><g fill="#000000" fill-opacity="1"><g transform="translate(14.445986, 232.83912)"><g><path d="M 22.375 -11.1875 L 22.375 -22.375 L 11.1875 -22.375 L 11.1875 -33.5625 L 0 -33.5625 L 0 -67.140625 L 11.1875 -67.140625 L 11.1875 -78.328125 L 22.375 -78.328125 L 22.375 -89.515625 L 55.953125 -89.515625 L 55.953125 -78.328125 L 67.140625 -78.328125 L 67.140625 -67.140625 L 78.328125 -67.140625 L 78.328125 -33.5625 L 67.140625 -33.5625 L 67.140625 -22.375 L 55.953125 -22.375 L 55.953125 -11.1875 Z M 33.5625 -22.375 L 55.953125 -22.375 L 55.953125 -67.140625 L 44.765625 -67.140625 L 44.765625 -78.328125 L 22.375 -78.328125 L 22.375 -33.5625 L 33.5625 -33.5625 Z M 33.5625 -22.375 "/></g></g></g><g fill="#000000" fill-opacity="1"><g transform="translate(103.965597, 232.83912)"><g><path d="M 22.375 -11.1875 L 22.375 -44.765625 L 33.5625 -44.765625 L 33.5625 -55.953125 L 44.765625 -55.953125 L 44.765625 -67.140625 L 55.953125 -67.140625 L 55.953125 -78.328125 L 22.375 -78.328125 L 22.375 -67.140625 L 0 -67.140625 L 0 -89.515625 L 78.328125 -89.515625 L 78.328125 -67.140625 L 67.140625 -67.140625 L 67.140625 -55.953125 L 55.953125 -55.953125 L 55.953125 -44.765625 L 44.765625 -44.765625 L 44.765625 -11.1875 Z M 22.375 -11.1875 "/></g></g></g><g fill="#000000" fill-opacity="1"><g transform="translate(193.485208, 232.83912)"><g><path d="M 11.1875 -11.1875 L 11.1875 -22.375 L 33.5625 -22.375 L 33.5625 -67.140625 L 22.375 -67.140625 L 22.375 -78.328125 L 33.5625 -78.328125 L 33.5625 -89.515625 L 55.953125 -89.515625 L 55.953125 -22.375 L 78.328125 -22.375 L 78.328125 -11.1875 Z M 11.1875 -11.1875 "/></g></g></g><g fill="#000000" fill-opacity="1"><g transform="translate(283.004819, 232.83912)"><g><path d="M 44.765625 -11.1875 L 44.765625 -33.5625 L 0 -33.5625 L 0 -55.953125 L 11.1875 -55.953125 L 11.1875 -67.140625 L 22.375 -67.140625 L 22.375 -78.328125 L 33.5625 -78.328125 L 33.5625 -89.515625 L 67.140625 -89.515625 L 67.140625 -44.765625 L 78.328125 -44.765625 L 78.328125 -33.5625 L 67.140625 -33.5625 L 67.140625 -11.1875 Z M 22.375 -44.765625 L 44.765625 -44.765625 L 44.765625 -67.140625 L 33.5625 -67.140625 L 33.5625 -55.953125 L 22.375 -55.953125 Z M 22.375 -44.765625 "/></g></g></g></svg>