<?xml version="1.0" encoding="UTF-8"?>
<svg version="1.1" xmlns="http://www.w3.org/2000/svg" width="1685" height="1684">
<path d="M0 0 C1.9114437 0.17886738 3.82290248 0.3575737 5.734375 0.53613281 C91.11766528 8.62160639 176.09800064 26.74441177 275 67 C276.04397949 67.45584473 277.08795898 67.91168945 278.16357422 68.38134766 C307.97181323 81.50301663 336.5346144 96.96871148 363 116 C363.76296387 116.5465625 364.52592773 117.093125 365.31201172 117.65625 C374.53175636 124.28484876 383.53575614 131.05909623 392.109375 138.5078125 C394.77418199 140.80530826 397.49413717 143.00096212 400.25 145.1875 C411.5169942 154.38071411 421.82789827 164.75055953 432.125 175 C432.81094238 175.68126953 433.49688477 176.36253906 434.20361328 177.06445312 C438.11374299 180.98704464 441.8366911 185.02041688 445.45458984 189.21386719 C447.34079778 191.39388256 449.29415399 193.50745018 451.25 195.625 C456.28340224 201.21012424 460.87984719 207.08905323 465.47265625 213.03564453 C467.05083331 215.065378 468.64825454 217.07866867 470.25 219.08984375 C484.84023763 237.48595681 498.00837475 256.81812926 510 277 C510.49419434 277.83144531 510.98838867 278.66289062 511.49755859 279.51953125 C553.91752483 351.36948393 580.11237738 431.55554122 579.42645264 811.23754883 C557.73787518 894.287436 519.29088624 972.03559119 464.42382812 1038.27197266 C463.13936123 1039.8308644 461.87321063 1041.40480439 460.609375 1042.98046875 C456.0925728 1048.61022401 451.35873302 1053.97288543 446.42358398 1059.23510742 C443.80361128 1062.02935769 441.24987544 1064.85967928 438.75390625 1067.765625 C434.4120144 1072.75201643 429.74646403 1077.39961907 425.0625 1082.0625 C424.20720703 1082.92166016 423.35191406 1083.78082031 422.47070312 1084.66601562 C418.01331557 1089.1166032 413.49246808 1093.4231548 408.71362305 1097.52709961 C406.55317021 1099.384061 404.46760283 1101.31719593 402.375 1103.25 C396.78460325 1108.28815391 390.89967328 1112.88542589 384.94677734 1117.48144531 C382.96466147 1119.0275653 381.00633775 1120.60014443 379.05078125 1122.1796875 C353.42081609 1142.73360767 325.01244956 1159.70498516 296 1175 C295.08331543 1175.48436523 294.16663086 1175.96873047 293.22216797 1176.46777344 C264.9040734 1191.31357542 235.29635614 1202.90451321 205 1213 C204.34102722 1213.2208728 203.68205444 1213.44174561 203.00311279 1213.66931152 C129.15845364 1238.3966156 51.52450956 1249.51533114 -26 1254 C-26.77948124 1254.04574693 -27.55896248 1254.09149385 -28.36206436 1254.13862705 C-44.33552697 1255.04799097 -60.28406741 1255.13501099 -76.27951956 1255.10139394 C-79.83617543 1255.09502623 -83.39283271 1255.09454623 -86.94949341 1255.09336853 C-93.64592822 1255.09029392 -100.34234618 1255.08213428 -107.03877366 1255.07201904 C-116.11493982 1255.05861469 -125.19111079 1255.05332664 -134.26728439 1255.04751682 C-148.51153549 1255.03819051 -162.75575106 1255.01824626 -177 1255 C-177 1227.61 -177 1200.22 -177 1172 C-159.14474942 1173.11595316 -159.14474942 1173.11595316 -151.8671875 1173.75390625 C-55.05743101 1181.82817254 45.84875611 1171.8107449 164 1113 C164.83321777 1112.50145508 165.66643555 1112.00291016 166.52490234 1111.48925781 C182.91109513 1101.60345369 198.41278947 1090.38943288 213 1078 C214.0584245 1077.1156828 215.11702863 1076.23158057 216.17578125 1075.34765625 C241.37123478 1054.17710493 263.74512034 1030.39535306 283.45361328 1004.06542969 C284.89888495 1002.1350542 286.35330235 1000.21188628 287.80859375 998.2890625 C305.02304188 975.36648598 319.08026667 950.53672998 332 925 C332.42635742 924.16339844 332.85271484 923.32679688 333.29199219 922.46484375 C351.43825057 886.60403814 363.71007268 848.00123418 373 809 C373.27295898 807.85563477 373.54591797 806.71126953 373.82714844 805.53222656 C393.69833728 720.81562544 395.71996249 631.19261054 338 360 C337.731875 359.38809814 337.46375 358.77619629 337.1875 358.14575195 C319.08638746 316.99944296 295.99480588 278.41302718 267 244 C266.5678418 243.4829248 266.13568359 242.96584961 265.69042969 242.43310547 C253.1890909 227.49581166 240.02328125 212.61263128 225.20703125 199.9296875 C223.05425534 198.04743741 220.96408937 196.10729979 218.87744141 194.15234375 C212.49806 188.19797801 205.82138718 182.75763402 198.89355469 177.45654297 C196.94132907 175.95486968 195.00513356 174.43417215 193.0703125 172.91015625 C122.6317291 117.76820319 36.51478935 87.77104862 -182.52484131 81.5763855 C-211.49636732 85.14324151 -239.97284105 90.62110217 -268.48046875 96.8515625 C-269.2053801 97.00873749 -269.93029144 97.16591248 -270.6771698 97.32785034 C-278.49860572 99.05455198 -286.21903017 101.05475754 -294 103 C-294.33 129.73 -294.66 156.46 -295 184 C-297.64 182.02 -300.28 180.04 -303 178 C-339.88429234 150.75540615 -387.37656389 138.79252698 -432.82006836 144.71972656 C-444.47806115 146.66434126 -456.83697197 150.33519496 -467.359375 155.71875 C-470 157 -470 157 -474 157 C-474.13462646 155.87078125 -474.13462646 155.87078125 -474.27197266 154.71875 C-478.15527449 122.83988861 -482.35059953 89.84089066 -509.0546875 68.56640625 C-534.78267885 49.07844062 -566.09688835 41.85038964 -597.90234375 41.5859375 C-599.3606518 41.56716054 -600.81894972 41.5475827 -602.27723694 41.5272522 C-606.05978337 41.47661244 -609.84236477 41.43662905 -613.62506104 41.39910889 C-618.19346649 41.35147988 -622.76170786 41.29018339 -627.32997894 41.23126221 C-634.2199172 41.14388441 -641.10983748 41.07352603 -648 41 C-648 26.81 -648 12.62 -648 -2 C-631.09575164 -1.46967064 -614.19387863 -0.90773484 -597.29296875 -0.28125 C-595.56015096 -0.21726303 -593.82733235 -0.1532984 -592.09451294 -0.08935547 C-585.03861078 0.17128426 -577.98272145 0.43220902 -570.92700195 0.69775391 C-566.52104253 0.86347236 -562.11498179 1.02626775 -557.70885658 1.18751526 C-556.09400064 1.24708818 -554.4791775 1.30756217 -552.86440086 1.36924744 C-519.63643591 2.63699956 -486.4054045 3.16239632 -453.15516376 3.16725707 C-450.32039777 3.16798683 -447.48563615 3.17015568 -444.65087128 3.17275429 C-434.60155445 3.18192118 -424.55225056 3.18610163 -414.50292969 3.18530273 C-406.39874261 3.18477448 -398.29460436 3.19174207 -390.19042969 3.20581055 C-323.50328523 3.31875637 -256.91689751 2.4842189 -190.29884529 -0.7306366 C-127.09307141 -3.77078504 -63.09150004 -6.09169309 0 0 Z " fill="#ffffff" transform="translate(866,216)"/>
<path d="M0 0 C4.52458003 4.01042321 6.50046198 7.82057066 7.06916821 13.78464782 C7.14528001 18.0316511 7.08397808 22.25810296 6.97914124 26.50364685 C6.95374152 28.15164638 6.93020096 29.79967543 6.90835416 31.44772589 C6.856914 35.02654426 6.79238016 38.60480726 6.71782577 42.18321812 C6.59615634 48.02652137 6.50306989 53.87009016 6.41326237 59.71395779 C6.28030308 68.19922418 6.13437055 76.68418447 5.98125076 85.16910934 C5.74495353 98.34961431 5.55411569 111.53057726 5.3732605 124.71194458 C5.31110686 129.21624898 5.24883608 133.72055175 5.18656063 138.22485447 C5.17096113 139.35535189 5.15536163 140.48584932 5.13928942 141.65060424 C4.95793281 154.74620491 4.76382228 167.84161424 4.56944275 180.93702698 C4.49556704 185.92064944 4.42172943 190.90427246 4.34789848 195.88789558 C4.32934065 197.140067 4.31078282 198.39223842 4.29166263 199.68235442 C4.08704948 213.50000051 3.88549861 227.31769116 3.6841751 241.13538548 C3.63464068 244.53484928 3.58507771 247.93431266 3.53551573 251.33377606 C3.52565169 252.01036132 3.51578765 252.68694658 3.5056247 253.38403443 C3.48564824 254.75423616 3.46567158 256.12443789 3.44569473 257.49463962 C3.42565385 258.86926074 3.40561383 260.24388187 3.38557467 261.61850301 C3.15212492 277.63231281 2.91819317 293.64611554 2.68383789 309.65991211 C2.67365688 310.35566623 2.66347587 311.05142034 2.65298634 311.76825792 C2.32259147 334.34537808 1.98916751 356.92245251 1.65449748 379.49950966 C1.30612649 403.00236882 0.96173473 426.50528357 0.62175529 450.00826567 C0.42305589 463.74348126 0.22248716 477.47866406 0.0158062 491.21376228 C-1.02308392 559.49233209 -1.02308392 559.49233209 -1.51365077 627.77654731 C-1.52369784 631.1403246 -1.53996951 634.50396793 -1.56232178 637.86768544 C-1.58715186 641.71244614 -1.59656557 645.55693971 -1.59376295 649.40177698 C-1.59547515 651.41048393 -1.61136745 653.41916407 -1.62805212 655.42780244 C-1.54762559 677.1659981 4.32702383 697.77578901 19.76171875 713.58203125 C24.35907714 718.08596577 29.41358818 721.85457926 34.75 725.4375 C36.16732422 726.39462891 36.16732422 726.39462891 37.61328125 727.37109375 C62.70943724 743.16231504 96.43885529 742.02194276 124.75 743.4375 C124.75 770.8275 124.75 798.2175 124.75 826.4375 C114.63221928 826.4375 114.63221928 826.4375 109.8972168 826.02612305 C108.82795456 825.93560165 107.75869232 825.84508026 106.6570282 825.7518158 C105.51595108 825.65195877 104.37487396 825.55210175 103.19921875 825.44921875 C100.66801804 825.23606753 98.13676558 825.02353009 95.60546875 824.81152344 C94.9456988 824.75585929 94.28592886 824.70019514 93.60616589 824.6428442 C60.01714345 821.80935538 26.43443158 819.79105669 -7.25 818.4375 C-8.1776416 818.39989563 -9.1052832 818.36229126 -10.06103516 818.32354736 C-22.12231728 817.84239117 -34.17992935 817.56300656 -46.25 817.4375 C-47.2867688 817.42654297 -48.3235376 817.41558594 -49.39172363 817.40429688 C-116.06195226 816.74301612 -182.82209054 818.71286461 -249.17504883 825.57397461 C-250.2864624 825.68878174 -251.39787598 825.80358887 -252.54296875 825.921875 C-253.4661792 826.02209961 -254.38938965 826.12232422 -255.34057617 826.22558594 C-258.96812699 826.4898063 -262.61283939 826.4375 -266.25 826.4375 C-266.25 799.0475 -266.25 771.6575 -266.25 743.4375 C-248.43 742.4475 -248.43 742.4475 -230.25 741.4375 C-202.15781174 738.30030131 -176.868956 731.51045366 -158.0546875 708.94140625 C-143.33247542 688.51513365 -140.82198806 666.84619759 -140.57739258 642.36621094 C-140.54455467 640.01321784 -140.51132903 637.66023013 -140.47777271 635.30724716 C-139.93501712 593.3003018 -140.04316264 551.28217651 -140.01435754 509.27265227 C-140.01081998 504.31977342 -140.0066791 499.36689516 -140.00251788 494.4140168 C-139.98413299 472.50593413 -139.96837537 450.59785134 -139.96061993 428.68976212 C-139.95871112 423.38562265 -139.95679055 418.0814832 -139.95483398 412.77734375 C-139.95410837 410.80068893 -139.95410837 410.80068893 -139.9533681 408.78410169 C-139.94527656 387.97146976 -139.92159957 367.15888961 -139.89027804 346.34628074 C-139.85597496 323.51035524 -139.836272 300.67445356 -139.83297569 277.83850074 C-139.8308146 265.43496482 -139.82211826 253.03151005 -139.79651451 240.62799835 C-139.77483923 230.10665302 -139.76674359 219.58540881 -139.77648129 209.06404367 C-139.78102781 203.70336412 -139.77911661 198.34289353 -139.75971985 192.98224258 C-139.74211152 188.07395336 -139.74306668 183.16602602 -139.75861714 178.25773308 C-139.76099596 176.48597197 -139.75665545 174.71418591 -139.74478849 172.94246295 C-139.6852196 163.4601343 -140.03210342 155.15738987 -144.25 146.4375 C-144.71921875 145.45394531 -145.1884375 144.47039062 -145.671875 143.45703125 C-153.00914748 131.2642108 -162.53082119 124.10504043 -176.25 120.4375 C-179.31844514 120.02095149 -182.34758883 119.94394989 -185.44165039 119.91333008 C-186.31103241 119.89338486 -187.18041443 119.87343964 -188.07614136 119.85289001 C-190.91655467 119.79099151 -193.75688254 119.74884532 -196.59765625 119.70703125 C-198.58021979 119.6677037 -200.56275901 119.62713177 -202.54527283 119.58537292 C-207.73833965 119.47930655 -212.93156191 119.39004666 -218.125 119.30438232 C-223.43444399 119.21379726 -228.74356405 119.10718422 -234.05273438 119.00195312 C-244.45156915 118.79818793 -254.85063899 118.61219117 -265.25 118.4375 C-266.00345792 115.08240457 -266.37278728 111.99157933 -266.36352539 108.55541992 C-266.36344986 107.61482224 -266.36337433 106.67422455 -266.36329651 105.7051239 C-266.35813522 104.7028627 -266.35297394 103.7006015 -266.34765625 102.66796875 C-266.3462413 101.63182938 -266.34482635 100.59569 -266.34336853 99.52815247 C-266.33778242 96.22707196 -266.32523242 92.92605992 -266.3125 89.625 C-266.30748321 87.38346452 -266.30292061 85.14192798 -266.29882812 82.90039062 C-266.28781753 77.41273716 -266.27109318 71.92512347 -266.25 66.4375 C-265.67705704 66.35504028 -265.10411407 66.27258057 -264.5138092 66.18762207 C-182.70572773 54.3857014 -101.76368081 37.94964568 -26.078125 3.65234375 C-25.1197876 3.22405273 -24.1614502 2.79576172 -23.17407227 2.35449219 C-21.4215812 1.5671298 -19.67636971 0.76323049 -17.94116211 -0.06152344 C-11.3594285 -3.02526425 -6.69496137 -3.21873143 0 0 Z " fill="#ffffff" transform="translate(540.25,644.5625)"/>
<path d="M0 0 C0.73089844 0.64582031 1.46179688 1.29164063 2.21484375 1.95703125 C23.43260483 21.8730892 36.67440679 52.68594719 38.12597656 81.50073242 C39.20454287 118.95360605 27.95594574 149.93876208 3 178 C2.42894531 178.65613281 1.85789062 179.31226563 1.26953125 179.98828125 C-13.52315375 195.92179028 -34.49591342 205.96000309 -55 212 C-56.22203125 212.36222656 -57.4440625 212.72445312 -58.703125 213.09765625 C-78.30516202 217.73910775 -102.80362267 217.03167212 -122 211 C-122.78084961 210.75862305 -123.56169922 210.51724609 -124.36621094 210.26855469 C-157.23840585 199.8026376 -183.17610957 177.51727211 -199.015625 146.93164062 C-214.02471948 117.4792707 -216.35280661 82.54777921 -206.24804688 51.11206055 C-194.74775356 17.78510023 -171.58191822 -7.69267324 -140.03271484 -23.25097656 C-92.4847178 -45.8405665 -38.33249016 -34.32506208 0 0 Z " fill="#ffffff" transform="translate(551,421)"/>
</svg>
